<svg height="512pt" viewBox="0 0 511 512" width="512pt" xmlns="http://www.w3.org/2000/svg"><path d="M376.5 112.344c-8.285 0-15-6.715-15-15V15c0-8.285 6.715-15 15-15 8.281 0 15 6.715 15 15v82.344c0 8.285-6.719 15-15 15zm-60 0c-8.285 0-15-6.715-15-15V15c0-8.285 6.715-15 15-15 8.281 0 15 6.715 15 15v82.344c0 8.285-6.719 15-15 15zm0 0" fill="#ff9100"/><path d="M256.5 112.344c-8.285 0-15-6.715-15-15V15c0-8.285 6.715-15 15-15 8.281 0 15 6.715 15 15v82.344c0 8.285-6.719 15-15 15zm0 0" fill="#fdbf00"/><path d="M256.5 0c-.027 0-.05.004-.078.004V112.34c.027 0 .05.004.078.004 8.281 0 15-6.715 15-15V15c0-8.285-6.719-15-15-15zm0 0" fill="#ff9100"/><path d="M196.5 112.344c-8.285 0-15-6.715-15-15V15c0-8.285 6.715-15 15-15 8.281 0 15 6.715 15 15v82.344c0 8.285-6.719 15-15 15zm-60 0c-8.285 0-15-6.715-15-15V15c0-8.285 6.715-15 15-15 8.281 0 15 6.715 15 15v82.344c0 8.285-6.719 15-15 15zm0 0" fill="#fdbf00"/><path d="M376.5 512c-8.285 0-15-6.715-15-15v-82.344c0-8.285 6.715-15 15-15 8.281 0 15 6.715 15 15V497c0 8.285-6.719 15-15 15zm-60 0c-8.285 0-15-6.715-15-15v-82.344c0-8.285 6.715-15 15-15 8.281 0 15 6.715 15 15V497c0 8.285-6.719 15-15 15zm0 0" fill="#ff9100"/><path d="M256.5 512c-8.285 0-15-6.715-15-15v-82.344c0-8.285 6.715-15 15-15 8.281 0 15 6.715 15 15V497c0 8.285-6.719 15-15 15zm-60 0c-8.285 0-15-6.715-15-15v-82.344c0-8.285 6.715-15 15-15 8.281 0 15 6.715 15 15V497c0 8.285-6.719 15-15 15zm0 0" fill="#fdbf00"/><path d="M256.5 399.656c-.027 0-.05.004-.078.004v112.336c.027 0 .05.004.078.004 8.281 0 15-6.715 15-15v-82.344c0-8.285-6.719-15-15-15zm0 0" fill="#ff9100"/><path d="M136.5 512c-8.285 0-15-6.715-15-15v-82.344c0-8.285 6.715-15 15-15 8.281 0 15 6.715 15 15V497c0 8.285-6.719 15-15 15zM97.844 391H15.5c-8.285 0-15-6.715-15-15s6.715-15 15-15h82.344c8.285 0 15 6.715 15 15s-6.715 15-15 15zm0-60H15.5c-8.285 0-15-6.715-15-15s6.715-15 15-15h82.344c8.285 0 15 6.715 15 15s-6.715 15-15 15zm0-60H15.5c-8.285 0-15-6.715-15-15s6.715-15 15-15h82.344c8.285 0 15 6.715 15 15s-6.715 15-15 15zm0-60H15.5c-8.285 0-15-6.715-15-15s6.715-15 15-15h82.344c8.285 0 15 6.715 15 15s-6.715 15-15 15zm0-60H15.5c-8.285 0-15-6.715-15-15s6.715-15 15-15h82.344c8.285 0 15 6.715 15 15s-6.715 15-15 15zm0 0" fill="#fdbf00"/><path d="M497.344 391H415c-8.285 0-15-6.715-15-15s6.715-15 15-15h82.344c8.285 0 15 6.715 15 15s-6.715 15-15 15zm0-60H415c-8.285 0-15-6.715-15-15s6.715-15 15-15h82.344c8.285 0 15 6.715 15 15s-6.715 15-15 15zm0-60H415c-8.285 0-15-6.715-15-15s6.715-15 15-15h82.344c8.285 0 15 6.715 15 15s-6.715 15-15 15zm0-60H415c-8.285 0-15-6.715-15-15s6.715-15 15-15h82.344c8.285 0 15 6.715 15 15s-6.715 15-15 15zm0-60H415c-8.285 0-15-6.715-15-15s6.715-15 15-15h82.344c8.285 0 15 6.715 15 15s-6.715 15-15 15zm0 0" fill="#ff9100"/><path d="M376.492 421h-240c-24.812 0-45-20.188-45-45V136c0-24.813 20.188-45 45-45h240c24.813 0 45 20.188 45 45v240c0 24.813-20.187 45-45 45zm0 0" fill="#00eccf"/><path d="M331.5 361H181.488a14.98 14.98 0 0 1-10.605-4.395l-15-15A14.986 14.986 0 0 1 151.488 331V181a14.98 14.98 0 0 1 4.395-10.605l15-15A14.996 14.996 0 0 1 181.488 151H331.5a14.98 14.98 0 0 1 10.605 4.395l15 15A14.986 14.986 0 0 1 361.5 181v150a14.98 14.98 0 0 1-4.395 10.605l-15 15A14.986 14.986 0 0 1 331.5 361zm0 0" fill="#00347b"/><path d="M226.5 241c8.262 0 15-6.738 15-15s-6.738-15-15-15-15 6.738-15 15 6.738 15 15 15zm0 0" fill="#fff36c" fill-rule="evenodd"/><path d="M357.105 170.395l-15-15A15.003 15.003 0 0 0 331.5 151h-75.078v210H331.5a14.98 14.98 0 0 0 10.605-4.395l15-15A14.986 14.986 0 0 0 361.5 331V181c0-3.98-1.582-7.793-4.395-10.605zm0 0" fill="#001737"/><path d="M286.5 241c8.262 0 15-6.738 15-15s-6.738-15-15-15-15 6.738-15 15 6.738 15 15 15zm0 0" fill="#ffcd00" fill-rule="evenodd"/><path d="M226.5 301c8.262 0 15-6.738 15-15s-6.738-15-15-15-15 6.738-15 15 6.738 15 15 15zm0 0" fill="#fff36c" fill-rule="evenodd"/><path d="M286.5 301c8.262 0 15-6.738 15-15s-6.738-15-15-15-15 6.738-15 15 6.738 15 15 15zm0 0" fill="#ffcd00" fill-rule="evenodd"/></svg>