<svg height="512" viewBox="0 0 512.049 512.049" width="512" xmlns="http://www.w3.org/2000/svg"><path d="M443.765 504.549h-301.23c-8.851 0-16.026-7.175-16.026-16.026V103.044c0-8.851 7.175-16.026 16.026-16.026h301.23c8.851 0 16.026 7.175 16.026 16.026v385.479c0 8.851-7.175 16.026-16.026 16.026z" fill="#c8effe"/><path d="M443.765 87.018h-22.566c8.851 0 16.026 7.175 16.026 16.026v385.479c0 8.851-7.175 16.026-16.026 16.026h22.566c8.851 0 16.026-7.175 16.026-16.026V103.045c0-8.852-7.175-16.027-16.026-16.027z" fill="#99e6fc"/><path d="M406.567 504.549h-301.23c-8.851 0-16.026-7.175-16.026-16.026V103.044c0-8.851 7.175-16.026 16.026-16.026h301.23c8.851 0 16.026 7.175 16.026 16.026v385.479c.001 8.851-7.175 16.026-16.026 16.026z" fill="#c8effe"/><path d="M406.567 87.018h-22.566c8.851 0 16.026 7.175 16.026 16.026v385.479c0 8.851-7.175 16.026-16.026 16.026h22.566c8.851 0 16.026-7.175 16.026-16.026V103.045c.001-8.852-7.175-16.027-16.026-16.027z" fill="#99e6fc"/><path d="M369.519 465.922H68.289c-8.851 0-16.026-7.175-16.026-16.026V64.417c0-8.851 7.175-16.026 16.026-16.026h301.23c8.851 0 16.026 7.175 16.026 16.026v385.479c0 8.851-7.175 16.026-16.026 16.026z" fill="#eaf6ff"/><path d="M369.519 48.391h-24.506c8.851 0 16.026 7.175 16.026 16.026v385.479c0 8.851-7.175 16.026-16.026 16.026h24.506c8.851 0 16.026-7.175 16.026-16.026V64.417c0-8.851-7.175-16.026-16.026-16.026z" fill="#c8effe"/><path d="M213.02 207.525H112.092c-8.372 0-15.159-6.787-15.159-15.159V48.391h131.246v143.975c0 8.372-6.787 15.159-15.159 15.159z" fill="#f89580"/><path d="M203.673 48.391v143.975c0 8.372-6.787 15.159-15.159 15.159h24.506c8.372 0 15.159-6.787 15.159-15.159V48.391z" fill="#f28472"/><path d="M328.775 402.621H196.252c-5.356 0-9.697-4.342-9.697-9.697v-32.762c0-5.356 4.342-9.697 9.697-9.697h132.523c5.356 0 9.698 4.342 9.698 9.697v32.762c0 5.355-4.342 9.697-9.698 9.697z" fill="#99e6fc"/><path d="M328.775 350.463h-24.506c5.356 0 9.698 4.342 9.698 9.698v32.762c0 5.356-4.342 9.697-9.698 9.697h24.506c5.356 0 9.698-4.342 9.698-9.697v-32.762c0-5.356-4.342-9.698-9.698-9.698z" fill="#62dbfb"/><path d="M106.631 402.621h29.904c5.356 0 9.697-4.342 9.697-9.697v-32.762c0-5.356-4.342-9.697-9.697-9.697h-29.904c-5.356 0-9.697 4.342-9.697 9.697v32.762c-.001 5.355 4.341 9.697 9.697 9.697z" fill="#0593fc"/><path d="M136.535 350.463h-24.506c5.356 0 9.698 4.342 9.698 9.698v32.762c0 5.356-4.342 9.697-9.698 9.697h24.506c5.356 0 9.698-4.342 9.698-9.697v-32.762c-.001-5.356-4.342-9.698-9.698-9.698z" fill="#0181fa"/><path d="M443.767 79.519h-50.722V64.417c0-12.973-10.554-23.526-23.526-23.526H263.192c-4.143 0-7.5 3.358-7.5 7.5s3.357 7.5 7.5 7.5h106.327c4.701 0 8.526 3.825 8.526 8.526v385.479c0 4.702-3.825 8.526-8.526 8.526H68.289c-4.702 0-8.526-3.825-8.526-8.526V64.417c0-4.702 3.825-8.526 8.526-8.526h21.145v136.475c0 12.494 10.165 22.659 22.659 22.659H213.02c12.494 0 22.659-10.165 22.659-22.659V48.391a7.5 7.5 0 0 0-7.5-7.5h-36.125V28.917c0-15.918-12.95-28.868-28.868-28.868-15.905-.964-30.604 12.38-30.534 28.868v11.974H68.289c-12.973 0-23.526 10.554-23.526 23.526v385.479c0 12.973 10.554 23.526 23.526 23.526h13.518v15.097c0 12.974 10.556 23.53 23.53 23.53h338.43c12.969 0 23.52-10.556 23.52-23.53v-385.47c0-12.974-10.551-23.53-23.52-23.53zM147.652 28.917c-.054-7.542 7.146-14.617 15.534-13.868 7.646 0 13.868 6.221 13.868 13.868v11.974h-29.402zm-15 26.974v62.917c-.098 16.073 14.021 29.693 30.534 28.868 15.917 0 28.868-12.95 28.868-28.868v-12.1a7.5 7.5 0 0 0-15 0v12.1c0 7.646-6.221 13.868-13.868 13.868-7.335.85-15.549-5.514-15.534-13.868V55.891h29.402v11.675a5.33 5.33 0 0 1-5.323 5.323 7.5 7.5 0 0 0 0 15c11.206 0 20.323-9.117 20.323-20.323V55.891h28.625v136.475c0 4.223-3.436 7.659-7.659 7.659H112.092c-4.223 0-7.659-3.436-7.659-7.659V55.891zm319.635 432.628c0 4.703-3.822 8.53-8.52 8.53H428.49a23.41 23.41 0 0 0 1.607-8.53V200.561c0-4.142-3.357-7.5-7.5-7.5s-7.5 3.358-7.5 7.5v287.958c0 4.703-3.827 8.53-8.53 8.53h-301.23c-4.704 0-8.53-3.827-8.53-8.53v-15.097h272.712c12.973 0 23.526-10.554 23.526-23.526V94.519h13.521c4.703 0 8.53 3.827 8.53 8.53v62.207c0 4.142 3.357 7.5 7.5 7.5s7.5-3.358 7.5-7.5v-62.207a23.41 23.41 0 0 0-1.607-8.53h15.277c4.697 0 8.52 3.827 8.52 8.53v385.47z"/><path d="M328.775 395.121h-85.171a7.5 7.5 0 0 0 0 15h85.171c9.482 0 17.197-7.715 17.197-17.198v-32.762c0-9.482-7.715-17.197-17.197-17.197H196.252c-9.483 0-17.198 7.715-17.198 17.197v32.762c0 9.483 7.715 17.198 17.198 17.198h12.089a7.5 7.5 0 0 0 0-15h-12.089a2.2 2.2 0 0 1-2.198-2.198v-32.762a2.2 2.2 0 0 1 2.198-2.197h132.523a2.2 2.2 0 0 1 2.197 2.197v32.762a2.2 2.2 0 0 1-2.197 2.198zm-222.144-52.157c-9.482 0-17.197 7.715-17.197 17.197v32.762c0 9.483 7.715 17.198 17.197 17.198h29.904c9.482 0 17.197-7.715 17.197-17.198v-32.762c0-9.482-7.715-17.197-17.197-17.197zm32.101 17.197v32.762a2.2 2.2 0 0 1-2.197 2.198h-29.904a2.2 2.2 0 0 1-2.197-2.198v-32.762a2.2 2.2 0 0 1 2.197-2.197h29.904a2.2 2.2 0 0 1 2.197 2.197zm194.696-244.335c4.143 0 7.5-3.358 7.5-7.5s-3.357-7.5-7.5-7.5h-55.487c-4.143 0-7.5 3.358-7.5 7.5s3.357 7.5 7.5 7.5zM89.434 259.235a7.5 7.5 0 0 0 7.5 7.5h236.495c4.143 0 7.5-3.358 7.5-7.5s-3.357-7.5-7.5-7.5H96.934a7.5 7.5 0 0 0-7.5 7.5zm251.494 36.549a7.5 7.5 0 0 0-7.5-7.5H96.934a7.5 7.5 0 0 0 0 15h236.495a7.5 7.5 0 0 0 7.499-7.5z"/></svg>