<svg height="512" viewBox="0 0 512 512" width="512" xmlns="http://www.w3.org/2000/svg"><path d="M483.622 504.5H53.391c-9.436 0-17.085-7.649-17.085-17.085V24.585c0-9.436 7.649-17.085 17.085-17.085h430.231c9.436 0 17.085 7.649 17.085 17.085v462.83c0 9.436-7.65 17.085-17.085 17.085z" fill="#95d6a4"/><path d="M483.622 7.5H461.61c9.436 0 17.085 7.649 17.085 17.085v462.83c0 9.436-7.649 17.085-17.085 17.085h22.012c9.436 0 17.085-7.649 17.085-17.085V24.585c0-9.436-7.65-17.085-17.085-17.085z" fill="#78c2a4"/><path d="M11.293 106.585h40.445v40.445H11.293z" fill="#ffe07d"/><path d="M11.293 183.414h40.445v81.553H11.293z" fill="#80b4fb"/><path d="M11.293 301.351h40.445v40.776H11.293zm0 77.16h59.231v40.776H11.293z" fill="#f9f6f9"/><path d="M287.905 263.476h-12.976a8.482 8.482 0 0 1-8.482-8.482V7.5h29.94v247.494a8.481 8.481 0 0 1-8.482 8.482zm61.453 0h-12.976a8.482 8.482 0 0 1-8.482-8.482V7.5h29.94v247.494a8.481 8.481 0 0 1-8.482 8.482z" fill="#80b4fb"/><path d="M208.418 301.351h-104.32a8.622 8.622 0 0 1-8.622-8.622V155.652a8.622 8.622 0 0 1 8.622-8.622h104.32a8.622 8.622 0 0 1 8.622 8.622v137.076a8.623 8.623 0 0 1-8.622 8.623z" fill="#f9f6f9"/><path d="M208.418 147.03h-21.545a8.622 8.622 0 0 1 8.622 8.622v137.076a8.622 8.622 0 0 1-8.622 8.622h21.545a8.622 8.622 0 0 0 8.622-8.622V155.652a8.622 8.622 0 0 0-8.622-8.622z" fill="#dddaec"/><path d="M158.959 271.491h-29.942a7.156 7.156 0 0 1-7.156-7.156v-74.6c0-7.095 5.751-12.846 12.846-12.846h43.077c10.518 0 16.579 11.95 10.364 20.436l-13.296 18.156a45.228 45.228 0 0 0-8.738 26.721v22.134a7.154 7.154 0 0 1-7.155 7.155z" fill="#30579d"/><path d="M177.785 176.89h-19.546c10.518 0 16.579 11.95 10.364 20.436l-13.296 18.156a45.228 45.228 0 0 0-8.738 26.721v22.134a7.156 7.156 0 0 1-7.156 7.156h19.546a7.156 7.156 0 0 0 7.156-7.156v-22.134a45.23 45.23 0 0 1 8.738-26.721l13.296-18.156c6.214-8.487.154-20.436-10.364-20.436z" fill="#26457d"/><circle cx="123.66" cy="369.209" fill="#dd636e" r="18.184"/><circle cx="256.69" cy="369.209" fill="#dd636e" r="18.184"/><path d="M309.743 468.485H124.555a4.834 4.834 0 0 1-4.834-4.834v-27.53a4.834 4.834 0 0 1 4.834-4.834h185.188a4.834 4.834 0 0 1 4.834 4.834v27.53a4.834 4.834 0 0 1-4.834 4.834z" fill="#ffe07d"/><path d="M309.743 431.287h-22.245a4.834 4.834 0 0 1 4.834 4.834v27.53a4.834 4.834 0 0 1-4.834 4.834h22.245a4.834 4.834 0 0 0 4.834-4.834v-27.53a4.834 4.834 0 0 0-4.834-4.834z" fill="#ffd064"/><path d="M425.862 401.6h-84.673a5.289 5.289 0 0 1-5.289-5.289v-84.673a5.288 5.288 0 0 1 5.289-5.288h84.673a5.289 5.289 0 0 1 5.289 5.288v84.673a5.29 5.29 0 0 1-5.289 5.289z" fill="#30579d"/><path d="M425.862 306.351h-19.837a5.289 5.289 0 0 1 5.289 5.289v84.673a5.289 5.289 0 0 1-5.289 5.289h19.837a5.288 5.288 0 0 0 5.288-5.289V311.64a5.288 5.288 0 0 0-5.288-5.289z" fill="#26457d"/><path d="M465.257 76.249h-67.804a4.585 4.585 0 0 1-4.585-4.585V52.695a4.585 4.585 0 0 1 4.585-4.585h67.804a4.585 4.585 0 0 1 4.585 4.585v18.969a4.586 4.586 0 0 1-4.585 4.585z" fill="#ffe07d"/><path d="M465.257 48.111h-19.45a4.585 4.585 0 0 1 4.585 4.585v18.969a4.585 4.585 0 0 1-4.585 4.585h19.45a4.585 4.585 0 0 0 4.585-4.585v-18.97a4.584 4.584 0 0 0-4.585-4.584z" fill="#ffd064"/><circle cx="431.355" cy="132.735" fill="#dd636e" r="28.229"/><path d="M431.355 104.506c-3.452 0-6.758.622-9.815 1.756 10.751 3.988 18.415 14.335 18.415 26.474s-7.663 22.486-18.415 26.474a28.163 28.163 0 0 0 9.815 1.756c15.591 0 28.229-12.639 28.229-28.229 0-15.593-12.638-28.231-28.229-28.231z" fill="#da4a54"/><path d="M483.622 0H53.39C39.834 0 28.805 11.029 28.805 24.585v74.5H11.294a7.5 7.5 0 0 0-7.5 7.5v40.445a7.5 7.5 0 0 0 7.5 7.5h17.512v21.384H11.294a7.5 7.5 0 0 0-7.5 7.5v81.552c0 4.143 3.357 7.5 7.5 7.5h17.512v21.384H11.294a7.499 7.499 0 0 0-7.5 7.5v40.776c0 4.143 3.357 7.5 7.5 7.5h17.512v21.384H11.294a7.499 7.499 0 0 0-7.5 7.5v40.776c0 4.143 3.357 7.5 7.5 7.5h17.512v60.628C28.805 500.971 39.834 512 53.39 512h267.517c4.143 0 7.5-3.357 7.5-7.5s-3.357-7.5-7.5-7.5H53.39c-5.285 0-9.585-4.3-9.585-9.586v-60.628h26.719c4.143 0 7.5-3.357 7.5-7.5V378.51c0-4.143-3.357-7.5-7.5-7.5H43.805v-21.384h7.933c4.143 0 7.5-3.357 7.5-7.5V301.35c0-4.143-3.357-7.5-7.5-7.5h-7.933v-21.384h7.933c4.143 0 7.5-3.357 7.5-7.5v-81.552a7.5 7.5 0 0 0-7.5-7.5h-7.933V154.53h7.933a7.5 7.5 0 0 0 7.5-7.5v-40.445a7.5 7.5 0 0 0-7.5-7.5h-7.933v-74.5c0-5.286 4.3-9.585 9.585-9.585h205.557v239.995c0 8.812 7.169 15.981 15.981 15.981h12.977c8.812 0 15.982-7.169 15.982-15.981V15H320.4v239.995c0 8.812 7.169 15.981 15.981 15.981h12.977c8.812 0 15.982-7.169 15.982-15.981V109.944c0-4.142-3.357-7.5-7.5-7.5s-7.5 3.358-7.5 7.5v145.051c0 .541-.44.981-.982.981h-12.977a.982.982 0 0 1-.981-.981V15h14.94v64.957c0 4.142 3.357 7.5 7.5 7.5s7.5-3.358 7.5-7.5V15h118.281c5.285 0 9.585 4.3 9.585 9.585v462.829c0 5.286-4.3 9.586-9.585 9.586H350.893c-4.143 0-7.5 3.357-7.5 7.5s3.357 7.5 7.5 7.5h132.729c13.557 0 24.585-11.029 24.585-24.586V24.585C508.207 11.029 497.178 0 483.622 0zM63.024 411.787h-44.23V386.01h44.23zm-18.786-77.161H18.794V308.85h25.444zm0-77.16H18.794v-66.552h25.444zm0-117.936H18.794v-25.445h25.444zm244.649 115.465c0 .541-.44.981-.982.981h-12.977a.982.982 0 0 1-.981-.981V15h14.94z"/><path d="M158.96 278.991c8.081 0 14.655-6.574 14.655-14.655v-22.134a37.48 37.48 0 0 1 7.289-22.289l13.296-18.156c4.554-6.218 5.217-14.351 1.73-21.224-3.486-6.873-10.438-11.143-18.146-11.143h-43.077c-11.219 0-20.346 9.127-20.346 20.346v74.6c0 8.081 6.574 14.655 14.655 14.655zm-29.598-89.256a5.352 5.352 0 0 1 5.346-5.346h43.077c2.963 0 4.321 2.047 4.768 2.928s1.296 3.186-.454 5.577l-13.296 18.156c-6.665 9.1-10.188 19.872-10.188 31.152v21.789h-29.253zm256.802 12.005a7.5 7.5 0 0 0 7.5 7.5h5.583c4.143 0 7.5-3.358 7.5-7.5s-3.357-7.5-7.5-7.5h-5.583a7.5 7.5 0 0 0-7.5 7.5zm47.983 7.5c4.143 0 7.5-3.358 7.5-7.5s-3.357-7.5-7.5-7.5h-5.584c-4.143 0-7.5 3.358-7.5 7.5s3.357 7.5 7.5 7.5zm29.316 0h5.584c4.143 0 7.5-3.358 7.5-7.5s-3.357-7.5-7.5-7.5h-5.584c-4.143 0-7.5 3.358-7.5 7.5s3.357 7.5 7.5 7.5zm-49.558 36.772h4.813c4.143 0 7.5-3.358 7.5-7.5s-3.357-7.5-7.5-7.5h-4.813c-4.143 0-7.5 3.358-7.5 7.5s3.357 7.5 7.5 7.5zm30.086 0h4.813c4.143 0 7.5-3.358 7.5-7.5s-3.357-7.5-7.5-7.5h-4.813c-4.143 0-7.5 3.358-7.5 7.5s3.357 7.5 7.5 7.5zM112.999 69.68c4.143 0 7.5-3.358 7.5-7.5s-3.357-7.5-7.5-7.5h-7.522c-4.143 0-7.5 3.358-7.5 7.5s3.357 7.5 7.5 7.5zm47.02-15h-7.523c-4.143 0-7.5 3.358-7.5 7.5s3.357 7.5 7.5 7.5h7.523c4.143 0 7.5-3.358 7.5-7.5s-3.357-7.5-7.5-7.5zm47.021 15c4.143 0 7.5-3.358 7.5-7.5s-3.357-7.5-7.5-7.5h-7.523c-4.143 0-7.5 3.358-7.5 7.5s3.357 7.5 7.5 7.5zm-67.807 29.405h-6.485c-4.143 0-7.5 3.358-7.5 7.5s3.357 7.5 7.5 7.5h6.485c4.143 0 7.5-3.358 7.5-7.5s-3.357-7.5-7.5-7.5zm34.049 15h6.486c4.143 0 7.5-3.358 7.5-7.5s-3.357-7.5-7.5-7.5h-6.486c-4.143 0-7.5 3.358-7.5 7.5s3.357 7.5 7.5 7.5zM123.66 394.893c14.162 0 25.684-11.522 25.684-25.685s-11.521-25.684-25.684-25.684-25.684 11.521-25.684 25.684 11.522 25.685 25.684 25.685zm0-36.368c5.891 0 10.684 4.793 10.684 10.684 0 5.892-4.793 10.685-10.684 10.685s-10.684-4.793-10.684-10.685c0-5.891 4.793-10.684 10.684-10.684zm158.714 10.683c0-14.162-11.521-25.684-25.684-25.684s-25.685 11.521-25.685 25.684 11.522 25.685 25.685 25.685 25.684-11.522 25.684-25.685zm-36.368 0c0-5.891 4.793-10.684 10.685-10.684 5.891 0 10.684 4.793 10.684 10.684 0 5.892-4.793 10.685-10.684 10.685-5.892 0-10.685-4.793-10.685-10.685z"/><path d="M328.822 442.386h-6.745v-6.266c0-6.801-5.533-12.334-12.334-12.334H209.456v-54.578a7.506 7.506 0 0 0-2.104-5.21l-24.048-24.902V308.85h25.114c8.89 0 16.122-7.232 16.122-16.122V155.652c0-8.89-7.232-16.122-16.122-16.122h-104.32c-8.891 0-16.123 7.232-16.123 16.122v79.837c0 4.142 3.357 7.5 7.5 7.5s7.5-3.358 7.5-7.5v-79.837c0-.619.504-1.122 1.123-1.122h104.319c.619 0 1.122.503 1.122 1.122v137.076c0 .619-.503 1.122-1.122 1.122H104.098a1.124 1.124 0 0 1-1.123-1.122v-27.252c0-4.143-3.357-7.5-7.5-7.5s-7.5 3.357-7.5 7.5v27.252c0 8.89 7.232 16.122 16.123 16.122h64.205v33.276c0 1.943.755 3.812 2.104 5.21l24.048 24.902v51.548h-69.9c-6.802 0-12.335 5.533-12.335 12.334v6.266h-6.744c-4.143 0-7.5 3.357-7.5 7.5s3.357 7.5 7.5 7.5h6.744v6.265c0 6.801 5.533 12.334 12.335 12.334h185.188c6.801 0 12.334-5.533 12.334-12.334v-6.265h6.745c4.143 0 7.5-3.357 7.5-7.5s-3.357-7.5-7.5-7.5zm-21.745 18.599H127.22v-22.198h179.856v22.198zm44.366-49.693c0 4.143 3.357 7.5 7.5 7.5s7.5-3.357 7.5-7.5V409.1h9.582v2.191c0 4.143 3.357 7.5 7.5 7.5s7.5-3.357 7.5-7.5V409.1h9.582v2.191c0 4.143 3.357 7.5 7.5 7.5s7.5-3.357 7.5-7.5V409.1h10.254c7.052 0 12.789-5.736 12.789-12.788v-10.255h2.19c4.143 0 7.5-3.357 7.5-7.5s-3.357-7.5-7.5-7.5h-2.19v-9.582h2.19c4.143 0 7.5-3.357 7.5-7.5s-3.357-7.5-7.5-7.5h-2.19v-9.581h2.19c4.143 0 7.5-3.357 7.5-7.5s-3.357-7.5-7.5-7.5h-2.19v-10.255c0-7.052-5.737-12.789-12.789-12.789h-10.254v-2.19c0-4.143-3.357-7.5-7.5-7.5s-7.5 3.357-7.5 7.5v2.19h-9.582v-2.19c0-4.143-3.357-7.5-7.5-7.5s-7.5 3.357-7.5 7.5v2.19h-9.582v-2.19c0-4.143-3.357-7.5-7.5-7.5s-7.5 3.357-7.5 7.5v2.19h-10.255c-7.052 0-12.788 5.737-12.788 12.789v10.255h-2.19c-4.143 0-7.5 3.357-7.5 7.5s3.357 7.5 7.5 7.5h2.19v9.581h-2.19c-4.143 0-7.5 3.357-7.5 7.5s3.357 7.5 7.5 7.5h2.19v9.582h-2.19c-4.143 0-7.5 3.357-7.5 7.5s3.357 7.5 7.5 7.5h2.19v10.255c0 7.052 5.736 12.788 12.788 12.788h10.255zM343.4 313.85h80.25v80.25H343.4z"/><path d="M364.688 376.838c4.143 0 7.5-3.357 7.5-7.5v-30.727c0-4.143-3.357-7.5-7.5-7.5s-7.5 3.357-7.5 7.5v30.727a7.5 7.5 0 0 0 7.5 7.5zm37.674 0c4.143 0 7.5-3.357 7.5-7.5v-30.727c0-4.143-3.357-7.5-7.5-7.5s-7.5 3.357-7.5 7.5v30.727c0 4.143 3.357 7.5 7.5 7.5zm74.98-324.143c0-6.664-5.421-12.085-12.085-12.085h-67.804c-6.664 0-12.085 5.421-12.085 12.085v18.969c0 6.664 5.421 12.084 12.085 12.084h67.804c6.664 0 12.085-5.421 12.085-12.084zm-15 16.054h-61.974V55.61h61.974zm-30.987 99.716c19.701 0 35.729-16.028 35.729-35.729s-16.028-35.729-35.729-35.729-35.729 16.028-35.729 35.729 16.028 35.729 35.729 35.729zm0-56.459c11.431 0 20.729 9.299 20.729 20.729s-9.299 20.729-20.729 20.729-20.729-9.299-20.729-20.729 9.299-20.729 20.729-20.729zm-54.088 349.933c-4.143 0-7.5 3.357-7.5 7.5s3.357 7.5 7.5 7.5h58.729c4.143 0 7.5-3.357 7.5-7.5s-3.357-7.5-7.5-7.5z"/></svg>