<svg height="512" viewBox="0 0 512 512" width="512" xmlns="http://www.w3.org/2000/svg"><path d="M504.5 62.53v386.94c0 30.39-24.64 55.03-55.03 55.03H62.53c-28.59 0-52.08-21.8-54.77-49.69a55.35 55.35 0 0 1-.26-5.34V62.53C7.5 32.14 32.14 7.5 62.53 7.5h386.94c30.39 0 55.03 24.64 55.03 55.03z" fill="#bbec6c"/><path d="M504.5 62.53v386.94c0 30.39-24.64 55.03-55.03 55.03h-25c30.39 0 55.03-24.64 55.03-55.03V62.53c0-30.39-24.64-55.03-55.03-55.03h25c30.39 0 55.03 24.64 55.03 55.03z" fill="#a2e62e"/><path d="M366.899 413H145.101C119.64 413 99 392.36 99 366.899V145.101C99 119.64 119.64 99 145.101 99H366.9c25.46 0 46.1 20.64 46.1 46.101V366.9c0 25.46-20.64 46.1-46.101 46.1z" fill="#678d98"/><path d="M413 145.1v221.8c0 25.46-20.64 46.1-46.1 46.1h-24c25.46 0 46.1-20.64 46.1-46.1V145.1c0-25.46-20.64-46.1-46.1-46.1h24c25.46 0 46.1 20.64 46.1 46.1z" fill="#537983"/><path d="M358.76 382.5H153.24c-13.111 0-23.74-10.629-23.74-23.74V153.24c0-13.111 10.629-23.74 23.74-23.74h205.52c13.112 0 23.74 10.629 23.74 23.74v205.52c0 13.111-10.629 23.74-23.74 23.74z" fill="#deecf1"/><path d="M256 163h92.333v65.509H256zm67.333 105.83h25v25h-25z" fill="#ffd15b"/><path d="M504.5 211a7.5 7.5 0 0 0 7.5-7.5V62.53C512 28.051 483.949 0 449.47 0H62.53C28.051 0 0 28.051 0 62.53v386.94c0 2.009.099 4.05.294 6.061C3.4 487.723 30.155 512 62.53 512h386.94c34.479 0 62.53-28.051 62.53-62.53V239.5c0-4.142-3.357-7.5-7.5-7.5s-7.5 3.358-7.5 7.5v209.97c0 26.208-21.322 47.53-47.53 47.53H62.53c-24.608 0-44.945-18.447-47.306-42.915A48.293 48.293 0 0 1 15 449.47V62.53C15 36.322 36.322 15 62.53 15h386.94C475.678 15 497 36.322 497 62.53V203.5a7.5 7.5 0 0 0 7.5 7.5z"/><path d="M297 122H153.241C136.015 122 122 136.015 122 153.241V358.76c0 17.225 14.015 31.24 31.241 31.24H358.76c17.226 0 31.24-14.015 31.24-31.241V153.241C390 136.015 375.985 122 358.76 122h-26.427c-4.143 0-7.5 3.358-7.5 7.5s3.357 7.5 7.5 7.5h26.427c8.955 0 16.24 7.286 16.24 16.241V358.76c0 8.955-7.285 16.241-16.24 16.241H153.241c-8.955 0-16.241-7.286-16.241-16.241V153.241c0-8.955 7.286-16.241 16.241-16.241H297c4.143 0 7.5-3.358 7.5-7.5s-3.357-7.5-7.5-7.5z"/><path d="M355.833 163a7.5 7.5 0 0 0-7.5-7.5H256a7.5 7.5 0 0 0-7.5 7.5v65.509a7.5 7.5 0 0 0 7.5 7.5h92.333a7.5 7.5 0 0 0 7.5-7.5zm-15 58.009H263.5V170.5h77.333z"/><circle cx="195.75" cy="223.754" r="7.5"/><circle cx="164" cy="223.754" r="7.5"/><circle cx="227.5" cy="223.754" r="7.5"/><circle cx="195.75" cy="195.754" r="7.5"/><circle cx="164" cy="195.754" r="7.5"/><circle cx="227.5" cy="195.754" r="7.5"/><circle cx="195.75" cy="167.754" r="7.5"/><circle cx="227.5" cy="167.754" r="7.5"/><path d="M164 276.33h124.666c4.143 0 7.5-3.358 7.5-7.5s-3.357-7.5-7.5-7.5H164a7.5 7.5 0 0 0 0 15zm0 35.633h106.594l26.282 21.347a7.506 7.506 0 0 0 4.729 1.678h46.729c4.143 0 7.5-3.358 7.5-7.5s-3.357-7.5-7.5-7.5h-44.066l-26.282-21.347a7.506 7.506 0 0 0-4.729-1.678H164a7.5 7.5 0 0 0 0 15zm191.833-43.133a7.5 7.5 0 0 0-7.5-7.5h-25a7.5 7.5 0 0 0-7.5 7.5v25a7.5 7.5 0 0 0 7.5 7.5h25a7.5 7.5 0 0 0 7.5-7.5zm-15 17.5h-10v-10h10z"/><path d="M451.26 161.657c4.143 0 7.5-3.358 7.5-7.5s-3.357-7.5-7.5-7.5H420.5c.449-30.697-24.513-55.533-55.156-55.157V60.74c0-4.142-3.357-7.5-7.5-7.5s-7.5 3.358-7.5 7.5V91.5h-52.896V60.74c0-4.142-3.357-7.5-7.5-7.5s-7.5 3.358-7.5 7.5V91.5h-52.896V60.74a7.5 7.5 0 0 0-15 0V91.5h-52.896V60.74a7.5 7.5 0 0 0-15 0V91.5c-30.698-.449-55.533 24.513-55.157 55.157H60.74a7.5 7.5 0 0 0 0 15H91.5v52.896H60.74a7.5 7.5 0 0 0 0 15H91.5v52.896H60.74a7.5 7.5 0 0 0 0 15H91.5v52.896H60.74a7.5 7.5 0 0 0 0 15H91.5c-.449 30.698 24.513 55.533 55.157 55.157v30.76a7.5 7.5 0 0 0 15 0V420.5h25.01a7.5 7.5 0 0 0 0-15h-41.566c-21.284 0-38.601-17.316-38.601-38.601V145.101c0-21.284 17.316-38.601 38.601-38.601H366.9c21.284 0 38.601 17.316 38.601 38.601V366.9c0 21.284-17.316 38.601-38.601 38.601H222.052a7.5 7.5 0 0 0-7.5 7.5v38.26a7.5 7.5 0 0 0 15 0V420.5h52.896v30.76c0 4.142 3.357 7.5 7.5 7.5s7.5-3.358 7.5-7.5V420.5h52.896v30.76c0 4.142 3.357 7.5 7.5 7.5s7.5-3.358 7.5-7.5V420.5c30.698.449 55.533-24.513 55.156-55.157h30.76c4.143 0 7.5-3.358 7.5-7.5s-3.357-7.5-7.5-7.5H420.5v-52.896h30.76c4.143 0 7.5-3.358 7.5-7.5s-3.357-7.5-7.5-7.5H420.5v-52.896h30.76c4.143 0 7.5-3.358 7.5-7.5s-3.357-7.5-7.5-7.5H420.5v-52.896h30.76z"/></svg>